<svg width="624" height="510" viewBox="0 0 624 510" fill="none" xmlns="http://www.w3.org/2000/svg">
<mask id="mask0_4510_2" style="mask-type:alpha" maskUnits="userSpaceOnUse" x="322" y="263" width="78" height="39">
<path d="M341.362 263.313C359.268 261.478 387.265 281.194 399.963 291.431C382.43 297.218 348.582 305.369 334.687 298.2C316.228 288.677 318.981 265.607 341.362 263.313Z" fill="#849A72"/>
</mask>
<g mask="url(#mask0_4510_2)">
<path d="M341.362 263.313C359.268 261.478 387.265 281.194 399.963 291.431C382.43 297.218 348.582 305.369 334.687 298.2C316.228 288.677 318.981 265.607 341.362 263.313Z" fill="#849A72"/>
<path d="M399.936 291.435C382.745 290.246 343.24 286.301 322.747 280.028" stroke="#145855" stroke-width="0.8" stroke-linecap="round" stroke-linejoin="round"/>
<path d="M337.388 264.25L350.342 285.616L339.617 299.494" stroke="#145855" stroke-width="0.8" stroke-linecap="round" stroke-linejoin="round"/>
<path d="M355.026 265.61L368.523 288.226L361.257 299.754" stroke="#145855" stroke-width="0.8" stroke-linecap="round" stroke-linejoin="round"/>
<path d="M375.396 274.738L384.577 290.021L379.401 296.718" stroke="#145855" stroke-width="0.8" stroke-linecap="round" stroke-linejoin="round"/>
</g>
<mask id="mask1_4510_2" style="mask-type:alpha" maskUnits="userSpaceOnUse" x="320" y="168" width="91" height="70">
<path d="M354.463 171.154C378.565 181.037 401.989 219.243 410.688 237.111C386.177 233.067 352.404 233.12 329.747 209.945C309.088 188.815 324.335 158.801 354.463 171.154Z" fill="#849A72"/>
</mask>
<g mask="url(#mask1_4510_2)">
<path d="M354.463 171.154C378.565 181.037 401.989 219.243 410.688 237.111C386.177 233.067 352.404 233.12 329.747 209.945C309.088 188.815 324.335 158.801 354.463 171.154Z" fill="#849A72"/>
<path d="M409.88 236.718C385.777 219.368 343.78 188.017 324.305 176.941" stroke="#145855" stroke-width="0.8" stroke-linecap="round" stroke-linejoin="round"/>
<path d="M375.402 186.539L375.436 211.754L357.144 227.004" stroke="#145855" stroke-width="0.8" stroke-linecap="round" stroke-linejoin="round"/>
<path d="M353.033 171.027L353.019 195.499L329.781 208.895" stroke="#145855" stroke-width="0.8" stroke-linecap="round" stroke-linejoin="round"/>
<path d="M393.039 208.412L393.844 224.98L383.393 233.275" stroke="#145855" stroke-width="0.8" stroke-linecap="round" stroke-linejoin="round"/>
</g>
<mask id="mask2_4510_2" style="mask-type:alpha" maskUnits="userSpaceOnUse" x="375" y="97" width="53" height="104">
<path d="M420.866 117.309C430.668 143.465 427.998 183.447 425.438 200.169C408.381 185.558 374.547 150.334 375.663 126.326C377.058 96.3161 408.614 84.6131 420.866 117.309Z" fill="#849A72"/>
</mask>
<g mask="url(#mask2_4510_2)">
<path d="M420.866 117.309C430.668 143.465 427.998 183.447 425.438 200.169C408.381 185.558 374.547 150.334 375.663 126.326C377.058 96.3161 408.614 84.6131 420.866 117.309Z" fill="#849A72"/>
<path d="M425.788 200.851C415.508 174.488 394.449 116.482 392.456 95.365" stroke="#145855" stroke-width="0.8" stroke-linecap="round" stroke-linejoin="round"/>
<path d="M397.411 173L417.144 177.527L428.385 162.982" stroke="#145855" stroke-width="0.8" stroke-linecap="round" stroke-linejoin="round"/>
<path d="M382.232 150.557L409.909 156.907L428.274 133.144" stroke="#145855" stroke-width="0.8" stroke-linecap="round" stroke-linejoin="round"/>
<path d="M373.929 120.188L401.067 130.266L419.672 106.192" stroke="#145855" stroke-width="0.8" stroke-linecap="round" stroke-linejoin="round"/>
</g>
<mask id="mask3_4510_2" style="mask-type:alpha" maskUnits="userSpaceOnUse" x="452" y="49" width="86" height="107">
<path d="M494.943 57.0605C466.959 76.2713 455.03 130.569 452.564 155.316C471.46 148.264 513.349 127.472 529.735 100.726C550.218 67.2942 529.922 33.0469 494.943 57.0605Z" fill="#849A72"/>
</mask>
<g mask="url(#mask3_4510_2)">
<path d="M494.943 57.0605C466.959 76.2713 455.03 130.569 452.564 155.316C471.46 148.264 513.349 127.472 529.735 100.726C550.218 67.2942 529.922 33.0469 494.943 57.0605Z" fill="#849A72"/>
<path d="M531.782 51.3561C508.064 73.6276 457.978 144.555 451.22 158.382" stroke="#145855" stroke-width="0.8" stroke-linecap="round" stroke-linejoin="round"/>
<path d="M457.956 113.921L467.6 132.847L490.556 139.115" stroke="#145855" stroke-width="0.8" stroke-linecap="round" stroke-linejoin="round"/>
<path d="M470.368 85.9852L483.707 110.266L518.097 116.926" stroke="#145855" stroke-width="0.8" stroke-linecap="round" stroke-linejoin="round"/>
<path d="M486.863 58.8792L500.483 87.4598L536.383 90.3281" stroke="#145855" stroke-width="0.8" stroke-linecap="round" stroke-linejoin="round"/>
</g>
<mask id="mask4_4510_2" style="mask-type:alpha" maskUnits="userSpaceOnUse" x="437" y="151" width="106" height="47">
<path d="M515.106 151.702C487.885 147.75 452.316 167.424 437.934 177.755C452.843 186.213 489.763 201.914 518.173 197.054C553.685 190.978 549.133 156.643 515.106 151.702Z" fill="#849A72"/>
</mask>
<g mask="url(#mask4_4510_2)">
<path d="M515.106 151.702C487.885 147.75 452.316 167.424 437.934 177.755C452.843 186.213 489.763 201.914 518.173 197.054C553.685 190.978 549.133 156.643 515.106 151.702Z" fill="#849A72"/>
<path d="M437.074 177.21C463.211 177.112 521.382 176.701 545.362 172.918" stroke="#145855" stroke-width="0.8" stroke-linecap="round" stroke-linejoin="round"/>
<path d="M468.841 157.952L459.235 176.68L471.392 193.803" stroke="#145855" stroke-width="0.8" stroke-linecap="round" stroke-linejoin="round"/>
<path d="M493.575 151.188L483.575 176.101L503.089 199.406" stroke="#145855" stroke-width="0.8" stroke-linecap="round" stroke-linejoin="round"/>
<path d="M520.844 150.158L512.182 175.334L530.617 194.697" stroke="#145855" stroke-width="0.8" stroke-linecap="round" stroke-linejoin="round"/>
</g>
<mask id="mask5_4510_2" style="mask-type:alpha" maskUnits="userSpaceOnUse" x="416" y="215" width="104" height="55">
<path d="M494.362 219.254C466.889 210.933 431.048 217.908 416.561 222.436C428.563 236.263 460.236 264.962 490.912 269.138C529.257 274.359 528.702 229.655 494.362 219.254Z" fill="#849A72"/>
</mask>
<g mask="url(#mask5_4510_2)">
<path d="M494.362 219.254C466.889 210.933 431.048 217.908 416.561 222.436C428.563 236.263 460.236 264.962 490.912 269.138C529.257 274.359 528.702 229.655 494.362 219.254Z" fill="#849A72"/>
<path d="M414.866 221.63C441.733 230.755 501.125 249.291 523.75 250.427" stroke="#145855" stroke-width="0.8" stroke-linecap="round" stroke-linejoin="round"/>
<path d="M452.448 213.294L437.856 229.055L447.295 251.652" stroke="#145855" stroke-width="0.8" stroke-linecap="round" stroke-linejoin="round"/>
<path d="M484.926 214.809L464.94 237.414L476.6 267.495" stroke="#145855" stroke-width="0.8" stroke-linecap="round" stroke-linejoin="round"/>
</g>
<mask id="mask6_4510_2" style="mask-type:alpha" maskUnits="userSpaceOnUse" x="403" y="269" width="53" height="26">
<path d="M446.122 272.696C433.602 266.674 412.333 269.725 403.264 272.004C407.35 277.75 422.77 290.781 436.709 293.74C457.898 298.239 461.772 280.223 446.122 272.696Z" fill="#849A72"/>
</mask>
<g mask="url(#mask6_4510_2)">
<path d="M446.122 272.696C433.602 266.674 412.333 269.725 403.264 272.004C407.35 277.75 422.77 290.781 436.709 293.74C457.898 298.239 461.772 280.223 446.122 272.696Z" fill="#849A72"/>
<path d="M401.941 271.685C412.294 275.962 437.834 284.945 457.175 286.668" stroke="#145855" stroke-width="0.8" stroke-linecap="round" stroke-linejoin="round"/>
<path d="M427.5 268.27L418.945 277.898L424.386 290.223" stroke="#145855" stroke-width="0.8" stroke-linecap="round" stroke-linejoin="round"/>
<path d="M443.418 270.541L434.559 282.004L440.235 295.466" stroke="#145855" stroke-width="0.8" stroke-linecap="round" stroke-linejoin="round"/>
</g>
<path d="M406.855 380.373C392.843 314.801 394.466 234.602 453.873 153.613" stroke="#849A72" stroke-width="1.5" stroke-linecap="round" stroke-linejoin="round"/>
<mask id="mask7_4510_2" style="mask-type:alpha" maskUnits="userSpaceOnUse" x="340" y="387" width="73" height="31">
<path d="M360.982 387.422C383.031 386.304 403.989 395.229 412.142 400.566C404.359 405.832 389.612 413.527 366.812 416.67C338.312 420.598 328.873 389.052 360.982 387.422Z" fill="#849A72"/>
</mask>
<g mask="url(#mask7_4510_2)">
<path d="M360.982 387.422C383.031 386.304 403.989 395.229 412.142 400.566C404.359 405.832 389.612 413.527 366.812 416.67C338.312 420.598 328.873 389.052 360.982 387.422Z" fill="#849A72"/>
<path d="M410.717 400.872C391.26 402.425 348.923 404.996 335.225 402.862" stroke="#145855" stroke-width="0.8" stroke-linecap="round" stroke-linejoin="round"/>
<path d="M348.29 387.313L362.296 403.536L351.194 417.901" stroke="#145855" stroke-width="0.8" stroke-linecap="round" stroke-linejoin="round"/>
<path d="M369.235 384.572L379.256 402.233L366.947 418.16" stroke="#145855" stroke-width="0.8" stroke-linecap="round" stroke-linejoin="round"/>
</g>
<mask id="mask8_4510_2" style="mask-type:alpha" maskUnits="userSpaceOnUse" x="403" y="329" width="50" height="31">
<path d="M430.665 332.333C417.827 339.57 407.112 352.736 403.358 358.415C412.351 360.757 438.009 361.443 447.949 350.06C460.375 335.833 446.711 323.286 430.665 332.333Z" fill="#849A72"/>
</mask>
<g mask="url(#mask8_4510_2)">
<path d="M430.665 332.333C417.827 339.57 407.112 352.736 403.358 358.415C412.351 360.757 438.009 361.443 447.949 350.06C460.375 335.833 446.711 323.286 430.665 332.333Z" fill="#849A72"/>
<path d="M402.432 358.133C413.894 353.326 440.267 341.95 454.063 334.897" stroke="#145855" stroke-width="0.8" stroke-linecap="round" stroke-linejoin="round"/>
<path d="M420.915 337.756L417.856 351.31L430.9 359.943" stroke="#145855" stroke-width="0.8" stroke-linecap="round" stroke-linejoin="round"/>
</g>
<mask id="mask9_4510_2" style="mask-type:alpha" maskUnits="userSpaceOnUse" x="129" y="404" width="26" height="43">
<path d="M129.367 432.825C131.023 422.54 146.239 409.842 153.864 404.278C154.473 414.946 153.959 435.088 147.87 441.782C139.782 450.675 127.297 445.68 129.367 432.825Z" fill="#849A72"/>
</mask>
<g mask="url(#mask9_4510_2)">
<path d="M129.367 432.825C131.023 422.54 146.239 409.842 153.864 404.278C154.473 414.946 153.959 435.088 147.87 441.782C139.782 450.675 127.297 445.68 129.367 432.825Z" fill="#849A72"/>
<path d="M153.862 404.293C150.622 413.725 142.499 435.218 135.923 445.735" stroke="#145855" stroke-width="0.8" stroke-linecap="round" stroke-linejoin="round"/>
<path d="M129.295 435.187L143.18 431.145L149.332 439.22" stroke="#145855" stroke-width="0.8" stroke-linecap="round" stroke-linejoin="round"/>
<path d="M132.698 425.53L147.363 421.373L152.719 427.161" stroke="#145855" stroke-width="0.8" stroke-linecap="round" stroke-linejoin="round"/>
<path d="M140.852 415.51L150.771 412.667L153.739 416.564" stroke="#145855" stroke-width="0.8" stroke-linecap="round" stroke-linejoin="round"/>
</g>
<mask id="mask10_4510_2" style="mask-type:alpha" maskUnits="userSpaceOnUse" x="75" y="390" width="51" height="44">
<path d="M79.8104 411.697C88.9452 399.703 113.812 392.332 125.104 390.145C119.172 403.242 114.143 422.13 97.7935 431.324C82.8865 439.708 68.3919 426.689 79.8104 411.697Z" fill="#849A72"/>
</mask>
<g mask="url(#mask10_4510_2)">
<path d="M79.8104 411.697C88.9452 399.703 113.812 392.332 125.104 390.145C119.172 403.242 114.143 422.13 97.7935 431.324C82.8865 439.708 68.3919 426.689 79.8104 411.697Z" fill="#849A72"/>
<path d="M124.763 390.538C111.454 401.414 87.637 420.195 78.5283 429.422" stroke="#145855" stroke-width="0.8" stroke-linecap="round" stroke-linejoin="round"/>
<path d="M91.5475 402.296L105.649 406.053L111.433 418.564" stroke="#145855" stroke-width="0.8" stroke-linecap="round" stroke-linejoin="round"/>
<path d="M79.5253 412.477L93.204 416.151L97.2117 431.148" stroke="#145855" stroke-width="0.8" stroke-linecap="round" stroke-linejoin="round"/>
<path d="M106.417 395.712L115.8 397.744L118.871 404.829" stroke="#145855" stroke-width="0.8" stroke-linecap="round" stroke-linejoin="round"/>
</g>
<mask id="mask11_4510_2" style="mask-type:alpha" maskUnits="userSpaceOnUse" x="45" y="366" width="62" height="28">
<path d="M59.6559 366.51C75.7463 364.948 97.6974 372.43 106.662 376.366C95.9387 383.713 71.1795 397.351 57.9257 393.131C41.3584 387.856 39.5429 368.462 59.6559 366.51Z" fill="#849A72"/>
</mask>
<g mask="url(#mask11_4510_2)">
<path d="M59.6559 366.51C75.7463 364.948 97.6974 372.43 106.662 376.366C95.9387 383.713 71.1795 397.351 57.9257 393.131C41.3584 387.856 39.5429 368.462 59.6559 366.51Z" fill="#849A72"/>
<path d="M107.096 376.273C90.818 378.071 55.2367 381.154 43.1332 379.105" stroke="#145855" stroke-width="0.8" stroke-linecap="round" stroke-linejoin="round"/>
<path d="M87.2754 387.964L92.7621 377.611L86.3147 369.149" stroke="#145855" stroke-width="0.8" stroke-linecap="round" stroke-linejoin="round"/>
<path d="M72.4556 393.088L80.1514 378.567L69.6181 364.741" stroke="#145855" stroke-width="0.8" stroke-linecap="round" stroke-linejoin="round"/>
<path d="M54.2347 393.181L63.9337 379.519L53.2624 365.512" stroke="#145855" stroke-width="0.8" stroke-linecap="round" stroke-linejoin="round"/>
</g>
<mask id="mask12_4510_2" style="mask-type:alpha" maskUnits="userSpaceOnUse" x="35" y="293" width="51" height="62">
<path d="M37.0717 316.075C43.6194 334.596 72.1862 349.398 85.6511 354.483C84.5391 342.863 79.1908 316.332 66.6937 303.165C51.0723 286.707 28.8871 292.923 37.0717 316.075Z" fill="#849A72"/>
</mask>
<g mask="url(#mask12_4510_2)">
<path d="M37.0717 316.075C43.6194 334.596 72.1862 349.398 85.6511 354.483C84.5391 342.863 79.1908 316.332 66.6937 303.165C51.0723 286.707 28.8871 292.923 37.0717 316.075Z" fill="#849A72"/>
<path d="M39.4008 294.626C48.2984 311.221 80.4463 349.845 87.1638 355.694" stroke="#145855" stroke-width="0.8" stroke-linecap="round" stroke-linejoin="round"/>
<path d="M63.3177 345.268L75.3423 342.712L82.2849 330.818" stroke="#145855" stroke-width="0.8" stroke-linecap="round" stroke-linejoin="round"/>
<path d="M49.56 334.146L65.1317 330.325L74.0063 312.098" stroke="#145855" stroke-width="0.8" stroke-linecap="round" stroke-linejoin="round"/>
<path d="M36.8781 320.864L54.8955 317.531L61.8764 297.892" stroke="#145855" stroke-width="0.8" stroke-linecap="round" stroke-linejoin="round"/>
</g>
<mask id="mask13_4510_2" style="mask-type:alpha" maskUnits="userSpaceOnUse" x="90" y="306" width="29" height="61">
<path d="M92.9993 318.979C86.7121 333.605 92.3824 356.436 96.0035 366.023C102.965 358.956 117.273 340.668 118.811 324.058C120.734 303.296 100.858 300.697 92.9993 318.979Z" fill="#849A72"/>
</mask>
<g mask="url(#mask13_4510_2)">
<path d="M92.9993 318.979C86.7121 333.605 92.3824 356.436 96.0035 366.023C102.965 358.956 117.273 340.668 118.811 324.058C120.734 303.296 100.858 300.697 92.9993 318.979Z" fill="#849A72"/>
<path d="M95.5704 366.422C99.4302 351.796 107.914 319.216 109.392 305.243" stroke="#145855" stroke-width="0.8" stroke-linecap="round" stroke-linejoin="round"/>
<path d="M89.5628 345.779L98.5935 353.954L109.986 349.723" stroke="#145855" stroke-width="0.8" stroke-linecap="round" stroke-linejoin="round"/>
<path d="M89.4867 330.939L101.916 340.261L117.866 332.843" stroke="#145855" stroke-width="0.8" stroke-linecap="round" stroke-linejoin="round"/>
<path d="M92.9955 315.541L105.772 324.154L119.358 316.748" stroke="#145855" stroke-width="0.8" stroke-linecap="round" stroke-linejoin="round"/>
</g>
<mask id="mask14_4510_2" style="mask-type:alpha" maskUnits="userSpaceOnUse" x="117" y="330" width="40" height="55">
<path d="M127.655 340.694C118.888 354.806 117.419 375.887 117.78 384.664C127.308 380.026 148.095 366.618 155.025 350.095C163.687 329.441 138.614 323.055 127.655 340.694Z" fill="#849A72"/>
</mask>
<g mask="url(#mask14_4510_2)">
<path d="M127.655 340.694C118.888 354.806 117.419 375.887 117.78 384.664C127.308 380.026 148.095 366.618 155.025 350.095C163.687 329.441 138.614 323.055 127.655 340.694Z" fill="#849A72"/>
<path d="M117.075 385.491C126.201 371.838 145.46 341.413 149.484 328.935" stroke="#145855" stroke-width="0.8" stroke-linecap="round" stroke-linejoin="round"/>
<path d="M118.045 363.233L124.67 373.751L138.716 371.859" stroke="#145855" stroke-width="0.8" stroke-linecap="round" stroke-linejoin="round"/>
<path d="M123.757 345.303L133.4 359.862L151.963 357.85" stroke="#145855" stroke-width="0.8" stroke-linecap="round" stroke-linejoin="round"/>
</g>
<mask id="mask15_4510_2" style="mask-type:alpha" maskUnits="userSpaceOnUse" x="143" y="371" width="20" height="29">
<path d="M150.304 375.667C145.063 381.764 143.583 394.111 143.498 399.522C147.322 398.099 156.916 391.43 160.659 384.081C166.348 372.91 156.856 368.045 150.304 375.667Z" fill="#849A72"/>
</mask>
<g mask="url(#mask15_4510_2)">
<path d="M150.304 375.667C145.063 381.764 143.583 394.111 143.498 399.522C147.322 398.099 156.916 391.43 160.659 384.081C166.348 372.91 156.856 368.045 150.304 375.667Z" fill="#849A72"/>
<path d="M143.122 400.214C147.063 395.067 155.911 382.135 159.771 371.581" stroke="#145855" stroke-width="0.8" stroke-linecap="round" stroke-linejoin="round"/>
<path d="M145.041 385.414L149.142 391.639L156.847 390.443" stroke="#145855" stroke-width="0.8" stroke-linecap="round" stroke-linejoin="round"/>
<path d="M148.695 376.856L153.776 383.525L162.152 382.369" stroke="#145855" stroke-width="0.8" stroke-linecap="round" stroke-linejoin="round"/>
</g>
<path d="M204.617 413.747C165.862 411.758 121.271 398.838 84.8953 353.496" stroke="#849A72" stroke-width="1.5" stroke-linecap="round" stroke-linejoin="round"/>
<mask id="mask16_4510_2" style="mask-type:alpha" maskUnits="userSpaceOnUse" x="201" y="413" width="19" height="42">
<path d="M201.686 440.447C204.364 427.954 212.492 417.574 216.697 413.816C218.476 418.956 220.568 428.353 218.91 441.569C216.837 458.09 197.788 458.641 201.686 440.447Z" fill="#849A72"/>
</mask>
<g mask="url(#mask16_4510_2)">
<path d="M201.686 440.447C204.364 427.954 212.492 417.574 216.697 413.816C218.476 418.956 220.568 428.353 218.91 441.569C216.837 458.09 197.788 458.641 201.686 440.447Z" fill="#849A72"/>
<path d="M216.655 414.659C214.608 425.768 209.704 449.821 206.459 457.159" stroke="#145855" stroke-width="0.8" stroke-linecap="round" stroke-linejoin="round"/>
<path d="M199.724 447.526L210.891 442.126L217.259 450.484" stroke="#145855" stroke-width="0.8" stroke-linecap="round" stroke-linejoin="round"/>
<path d="M201.329 435.406L212.703 432.45L219.763 441.717" stroke="#145855" stroke-width="0.8" stroke-linecap="round" stroke-linejoin="round"/>
</g>
<mask id="mask17_4510_2" style="mask-type:alpha" maskUnits="userSpaceOnUse" x="180" y="381" width="17" height="32">
<path d="M181.328 393.241C183.451 401.501 189.206 409.464 191.818 412.413C194.474 407.737 198.701 393.496 193.827 386.234C187.735 377.157 178.674 382.916 181.328 393.241Z" fill="#849A72"/>
</mask>
<g mask="url(#mask17_4510_2)">
<path d="M181.328 393.241C183.451 401.501 189.206 409.464 191.818 412.413C194.474 407.737 198.701 393.496 193.827 386.234C187.735 377.157 178.674 382.916 181.328 393.241Z" fill="#849A72"/>
<path d="M191.522 412.888C190.552 405.761 188.142 389.314 186.266 380.545" stroke="#145855" stroke-width="0.8" stroke-linecap="round" stroke-linejoin="round"/>
<path d="M182.899 399.504L190.018 403.244L196.798 397.245" stroke="#145855" stroke-width="0.8" stroke-linecap="round" stroke-linejoin="round"/>
</g>
</svg>
